<?xml version="1.0" encoding="utf-8"?>
<svg xmlns="http://www.w3.org/2000/svg">
  <g>
    <g transform="translate(0,0.0367535511725468)">
      <path id="path1" height="32" width="32" transform="rotate(0,16,15.9632464488275) translate(0,0) scale(0.0415709606238833,0.0415709606238833)  " fill="#FFFFFF" d="M72.0101,0C90.4433,2E-06,108.882,7.01784,122.949,21.0535L384.892,282.359 646.792,21.0535C674.927,-7.01784 720.547,-7.01784 748.683,21.0535 776.775,49.1265 776.775,94.5986 748.64,122.67L486.74,383.975 748.683,645.324C776.818,673.397 776.775,718.89 748.683,746.962 720.547,775.002 674.927,775.023 646.792,746.962L384.892,485.635 122.949,746.962C94.814,775.023 49.1957,775.002 21.1022,746.962 -7.03405,718.89 -7.03405,673.397 21.1022,645.324L283.001,384.018 21.1022,122.67C-7.03405,94.5986 -7.03405,49.1265 21.1022,21.0535 35.1489,7.01784 53.5769,2E-06 72.0101,0z" />
    </g>
  </g>
</svg>

